<svg xmlns="http://www.w3.org/2000/svg" style="display: none;"><symbol id="menu-2" viewBox="0 0 24 24"><title>menu-2</title><path d="M24,3c0-0.6-0.4-1-1-1H1C0.4,2,0,2.4,0,3v2c0,0.6,0.4,1,1,1h22c0.6,0,1-0.4,1-1V3z"/><path d="M24,11c0-0.6-0.4-1-1-1H1c-0.6,0-1,0.4-1,1v2c0,0.6,0.4,1,1,1h22c0.6,0,1-0.4,1-1V11z"/><path d="M24,19c0-0.6-0.4-1-1-1H1c-0.6,0-1,0.4-1,1v2c0,0.6,0.4,1,1,1h22c0.6,0,1-0.4,1-1V19z"/></symbol><symbol id="menu" viewBox="0 0 512 512"><title>menu</title><g> <g> <path d="M491.318,235.318H20.682C9.26,235.318,0,244.577,0,256s9.26,20.682,20.682,20.682h470.636 c11.423,0,20.682-9.259,20.682-20.682C512,244.578,502.741,235.318,491.318,235.318z"/> </g> </g><g> <g> <path d="M491.318,78.439H20.682C9.26,78.439,0,87.699,0,99.121c0,11.422,9.26,20.682,20.682,20.682h470.636 c11.423,0,20.682-9.26,20.682-20.682C512,87.699,502.741,78.439,491.318,78.439z"/> </g> </g><g> <g> <path d="M491.318,392.197H20.682C9.26,392.197,0,401.456,0,412.879s9.26,20.682,20.682,20.682h470.636 c11.423,0,20.682-9.259,20.682-20.682S502.741,392.197,491.318,392.197z"/> </g> </g></symbol><symbol id="menu-1" viewBox="0 0 124 124"><title>menu-1</title><path d="M112,6H12C5.4,6,0,11.4,0,18s5.4,12,12,12h100c6.6,0,12-5.4,12-12S118.6,6,112,6z"/><path d="M112,50H12C5.4,50,0,55.4,0,62c0,6.6,5.4,12,12,12h100c6.6,0,12-5.4,12-12C124,55.4,118.6,50,112,50z"/><path d="M112,94H12c-6.6,0-12,5.4-12,12s5.4,12,12,12h100c6.6,0,12-5.4,12-12S118.6,94,112,94z"/></symbol><symbol id="spatula" viewBox="0 0 297.502 297.502"><title>spatula</title><rect x="17.006" y="237.171" transform="matrix(0.7071 -0.7071 0.7071 0.7071 -155.02 110.0603)" style="fill:#E8D579;" width="76.678" height="9.97"/><path style="fill:#B8C4AC;" d="M274.47,101.281c1.74,1.75,2.641,3.92,2.521,6.12c-0.13,2.189-1.25,4.25-3.181,5.79l-75.26,60.199 c-2.05,1.641-4.79,2.551-7.71,2.551c-1.74,0-3.42-0.32-4.95-0.91c-1.529-0.59-2.89-1.46-3.989-2.561l-56.87-56.87 c-4.21-4.21-4.641-11.989-0.92-16.649l60.21-75.25c1.64-2.05,3.84-3.19,6.189-3.19c2.08,0,4.061,0.88,5.71,2.53L274.47,101.281z M249.67,104.921c3.96-3.96,3.96-10.37,0-14.32c-3.96-3.96-10.37-3.96-14.32,0l-53.449,53.44c-3.961,3.95-3.961,10.37,0,14.32 c1.98,1.979,4.569,2.97,7.159,2.97c2.591,0,5.191-0.99,7.16-2.97L249.67,104.921z M228.29,83.541c3.96-3.96,3.96-10.37,0-14.32 c-3.95-3.96-10.36-3.96-14.32,0l-53.45,53.441c-3.949,3.95-3.949,10.37,0,14.32c1.98,1.98,4.57,2.97,7.16,2.97 c2.59,0,5.19-0.99,7.17-2.97L228.29,83.541z M206.91,62.161c3.96-3.95,3.96-10.37,0-14.32c-3.95-3.96-10.36-3.96-14.32,0 l-53.45,53.44c-3.95,3.96-3.95,10.37,0,14.33c1.98,1.97,4.57,2.96,7.16,2.96c2.601,0,5.19-0.99,7.17-2.96L206.91,62.161z"/><path d="M288.79,86.961c5.79,5.79,8.86,13.65,8.42,21.55c-0.44,7.91-4.35,15.38-10.75,20.5l-75.25,60.2 c-2.809,2.25-6.03,4-9.48,5.18c-3.449,1.191-7.14,1.811-10.89,1.811c-8.81,0-17.29-3.431-23.27-9.41L146.3,165.52l-42.36,42.36 l3.53,3.53c1.9,1.899,2.97,4.47,2.97,7.16c0,2.689-1.069,5.26-2.97,7.16l-68.55,68.55c-1.981,1.97-4.57,2.96-7.16,2.96 c-2.59,0-5.18-0.99-7.16-2.96l-21.38-21.38c-1.899-1.9-2.97-4.48-2.97-7.16c0-2.69,1.07-5.271,2.97-7.16l68.55-68.55 c3.95-3.95,10.37-3.95,14.32,0l3.53,3.529l42.359-42.359l-21.27-21.271c-11.43-11.43-12.521-31.01-2.42-43.63l60.21-75.25 c5.49-6.859,13.51-10.79,22.01-10.79c7.46,0,14.58,3,20.04,8.46L288.79,86.961z M276.99,107.401c0.12-2.2-0.78-4.37-2.521-6.12 l-78.25-78.24c-1.649-1.65-3.63-2.53-5.71-2.53c-2.35,0-4.55,1.141-6.189,3.19l-60.21,75.25c-3.721,4.66-3.29,12.439,0.92,16.649 l56.87,56.87c1.1,1.101,2.46,1.971,3.989,2.561c1.53,0.59,3.21,0.91,4.95,0.91c2.92,0,5.66-0.91,7.71-2.551l75.26-60.199 C275.74,111.651,276.86,109.591,276.99,107.401z M31.76,272.791l54.22-54.22l-7.05-7.051l-54.22,54.221L31.76,272.791z"/><path d="M249.67,90.6c3.96,3.95,3.96,10.36,0,14.32l-53.45,53.441c-1.97,1.979-4.569,2.97-7.16,2.97 c-2.59,0-5.18-0.99-7.159-2.97c-3.961-3.95-3.961-10.37,0-14.32L235.35,90.6C239.3,86.64,245.71,86.64,249.67,90.6z"/><path d="M228.29,69.22c3.96,3.95,3.96,10.36,0,14.32l-53.44,53.44c-1.979,1.98-4.58,2.97-7.17,2.97c-2.59,0-5.18-0.99-7.16-2.97 c-3.949-3.95-3.949-10.37,0-14.32l53.45-53.441C217.93,65.261,224.34,65.261,228.29,69.22z"/><path d="M206.91,47.841c3.96,3.95,3.96,10.37,0,14.32l-53.44,53.45c-1.98,1.97-4.569,2.96-7.17,2.96c-2.59,0-5.18-0.99-7.16-2.96 c-3.95-3.96-3.95-10.37,0-14.33l53.45-53.44C196.55,43.881,202.96,43.881,206.91,47.841z"/></symbol><symbol id="home" viewBox="0 0 512 512"><title>home</title><g> <g> <path d="M506.555,208.064L263.859,30.367c-4.68-3.426-11.038-3.426-15.716,0L5.445,208.064 c-5.928,4.341-7.216,12.665-2.875,18.593s12.666,7.214,18.593,2.875L256,57.588l234.837,171.943c2.368,1.735,5.12,2.57,7.848,2.57 c4.096,0,8.138-1.885,10.744-5.445C513.771,220.729,512.483,212.405,506.555,208.064z"/> </g> </g><g> <g> <path d="M442.246,232.543c-7.346,0-13.303,5.956-13.303,13.303v211.749H322.521V342.009c0-36.68-29.842-66.52-66.52-66.52 s-66.52,29.842-66.52,66.52v115.587H83.058V245.847c0-7.347-5.957-13.303-13.303-13.303s-13.303,5.956-13.303,13.303v225.053 c0,7.347,5.957,13.303,13.303,13.303h133.029c6.996,0,12.721-5.405,13.251-12.267c0.032-0.311,0.052-0.651,0.052-1.036v-128.89 c0-22.009,17.905-39.914,39.914-39.914s39.914,17.906,39.914,39.914v128.89c0,0.383,0.02,0.717,0.052,1.024 c0.524,6.867,6.251,12.279,13.251,12.279h133.029c7.347,0,13.303-5.956,13.303-13.303V245.847 C455.549,238.499,449.593,232.543,442.246,232.543z"/> </g> </g></symbol><symbol id="beer" viewBox="0 0 512 512"><title>beer</title><g> <g> <path d="M286,451.29c-5.52,0-10,4.48-10,10c0,5.52,4.48,10,10,10c5.52,0,10-4.48,10-10S291.52,451.29,286,451.29z"/> </g> </g><g> <g> <path d="M145.5,200.29c-5.523,0-10,4.477-10,10v191c0,5.523,4.477,10,10,10s10-4.477,10-10v-191 C155.5,204.767,151.023,200.29,145.5,200.29z"/> </g> </g><g> <g> <path d="M225.5,200.29c-5.523,0-10,4.477-10,10v191c0,5.523,4.477,10,10,10s10-4.477,10-10v-191 C235.5,204.767,231.023,200.29,225.5,200.29z"/> </g> </g><g> <g> <path d="M426.5,161h-50v-30.259c15.675-11.751,23.125-31.613,18.707-51.224c-4.133-18.39-19.313-33.398-37.768-37.345 c-9.811-2.105-19.692-1.36-28.695,2.063C319.716,30.002,303.862,21,286.5,21c-6.544,0-12.939,1.269-18.852,3.711 C250.91,8.922,228.843,0,206,0c-30.216,0-58.396,15.393-75.03,40.579C78.7,37.687,35.5,79.156,35.5,130.29v120 c0,16.542,13.682,30,30.5,30c3.689,0,7.224-0.671,10.5-1.893V462c0,27.57,22.43,50,50,50h200c27.57,0,50-22.43,50-50v-30h50 c27.57,0,50-22.43,50-50V211C476.5,183.43,454.07,161,426.5,161z M356.5,452h-30.51c-5.523,0-10,4.477-10,10s4.477,9.9,10,9.9 h28.79c-4.128,11.639-15.244,20.1-28.28,20.1h-200c-13.036,0-24.152-8.361-28.28-20h147.79c5.523,0,10-4.477,10-10 s-4.477-10-10-10H96.5V250.07v-70.564c22.463-3.391,41.914-17.538,52.14-38.505c2.086,0,3.924,0.722,5.309,2.081 c11.286,11.098,26.22,17.209,42.051,17.209c16.408,0,31.725-6.495,43.135-18.295c0.61-0.632,1.473-0.995,2.365-0.995 c15.567,0,25.753,3.325,30.277,9.881c3.729,5.405,3.726,12.915,3.723,18.95v40.459c0,13.036,8.361,24.152,20,28.28v162.72 c0,5.523,4.477,10,10,10s10-4.477,10-10V238.57c11.639-4.128,20-15.243,20-28.28v-70.464c7.005,1.398,14.154,1.407,21,0.007V452z M330.033,116.947c-3.1-1.577-6.796-1.43-9.762,0.389c-2.965,1.818-4.772,5.046-4.772,8.524v84.43c0,5.514-4.486,10-10,10 c-5.514,0-10-4.486-10-10v-40.452c0.003-7.876,0.008-19.779-7.261-30.315C279.759,127.232,264.034,121,241.5,121 c-6.29,0-12.396,2.589-16.749,7.099c-7.602,7.862-17.813,12.191-28.751,12.191c-10.553,0-20.507-4.073-28.035-11.477 c-5.133-5.039-11.996-7.813-19.325-7.813c-7.579,0-14.623,4.397-17.946,11.202c-8.382,17.164-25.35,27.927-44.28,28.089 c-5.489,0.047-9.915,4.51-9.915,10v79.525C76.147,255.705,71.568,260.29,66,260.29c-5.691,0-10.5-4.58-10.5-10v-120 c0-38.596,31.582-69.852,70.407-69.852c3.017,0,6.05,0.192,9.081,0.581c4.045,0.519,7.998-1.471,9.993-5.026 C157.437,33.792,180.818,20,206,20c19.73,0,38.752,8.615,52.187,23.637c3.256,3.642,8.668,4.398,12.799,1.785 C275.559,42.529,280.924,41,286.5,41c12.73,0,24.108,8.061,28.313,20.057c1.023,2.92,3.341,5.203,6.277,6.181 c2.935,0.978,6.159,0.542,8.729-1.182c6.816-4.57,15.134-6.107,23.429-4.327c10.8,2.31,20.03,11.428,22.446,22.179 C381.386,109.172,355.489,129.896,330.033,116.947z M376.5,221h40v151h-40V221z M456.5,382c0,16.542-13.458,30-30,30h-50v-20h50 c5.523,0,10-4.477,10-10V211c0-5.523-4.477-10-10-10h-50v-20h50c16.542,0,30,13.458,30,30V382z"/> </g> </g></symbol><symbol id="food-1" viewBox="0 0 496 496"><title>food-1</title><path d="M472,272V168c0-13.232-10.768-24-24-24h-16c-6.168,0-11.744,2.408-16,6.24c-4.256-3.84-9.832-6.24-16-6.24h-16 c-6.168,0-11.744,2.408-16,6.24c-4.256-3.84-9.832-6.24-16-6.24h-16c-13.232,0-24,10.768-24,24v102.656 c-18.456-12.792-45.392-23.68-84.832-28.288l12.6-88.208c0.152-1.064,0.232-2.144,0.232-3.224 C240,138.288,229.712,128,217.064,128H144V56c0-4.408,3.592-8,8-8h64c13.232,0,24-10.768,24-24S229.232,0,216,0h-72 c-26.472,0-48,21.528-48,48v80H22.936C10.288,128,0,138.288,0,150.936c0,1.08,0.08,2.16,0.232,3.248l19.28,134.944 C0.496,311.776,0,334.112,0,336c0,13.952,9.024,25.712,21.496,30.088C18.032,371.2,16,377.368,16,384 c0,8.528,3.4,16.232,8.856,21.976C10.056,414.16,0,429.92,0,448c0,26.472,21.528,48,48,48h240h16h192V328v-8v-24 C496,282.768,485.232,272,472,272z M424,168c0-4.408,3.592-8,8-8h16c4.408,0,8,3.592,8,8v104h-32V168z M376,168 c0-4.408,3.592-8,8-8h16c4.408,0,8,3.592,8,8v104h-32V168z M328,168c0-4.408,3.592-8,8-8h16c4.408,0,8,3.592,8,8v104h-32V168z M200,16h16c4.408,0,8,3.592,8,8s-3.592,8-8,8h-16V16z M168,16h16v16h-16V16z M112,48c0-17.648,14.352-32,32-32h8v16 c-13.232,0-24,10.768-24,24v72h-16V48z M17.224,160l-1.152-8.056c-0.048-0.336-0.072-0.672-0.072-1.008 c0-3.824,3.112-6.936,6.936-6.936H96h48h73.064c3.824,0,6.936,3.112,6.936,6.936c0,0.336-0.024,0.672-0.064,0.984l-1.16,8.08H200 v16h20.488l-4.568,32H24.08l-4.568-32H184v-16H17.224z M213.64,224l-2.416,16.928C202.656,240.336,193.632,240,184,240h-16 c-69.712,0-110.432,16.232-134.296,35.352L26.368,224H213.64z M16,336c0-0.8,1.736-80,152-80h16c149.224,0,151.96,76.784,152,80 c0,8.824-7.176,16-16,16h-8h-8H48H32C23.176,352,16,344.824,16,336z M48,400c-8.824,0-16-7.176-16-16c0-8.824,7.176-16,16-16h256 c8.824,0,16,7.176,16,16c0,8.824-7.176,16-16,16H48z M270.608,416l-32.824,38.296L150.24,416H270.608z M304,480h-16H48 c-17.648,0-32-14.352-32-32s14.352-32,32-32h62.328l131.888,57.704L291.68,416H304c17.648,0,32,14.352,32,32S321.648,480,304,480 z M327.152,405.976C332.6,400.232,336,392.528,336,384c0-5.856-1.696-11.272-4.448-16H448v80h-96c0-5.616-1.024-10.984-2.8-16 H400v-16h-60.32C336.096,412.008,331.88,408.592,327.152,405.976z M480,320h-16v16h16v144H339.68 c4.152-4.624,7.408-10.032,9.52-16H464V352H347.552c2.752-4.728,4.448-10.144,4.448-16h96v-16h-98.712 c-2.6-8.896-7.736-20.44-17.752-32H472c4.408,0,8,3.584,8,8V320z"/><rect x="416" y="416" width="16" height="16"/><rect x="104" y="272" width="16" height="16"/><rect x="136" y="288" width="16" height="16"/><rect x="168" y="272" width="16" height="16"/><rect x="216" y="296" width="16" height="16"/><rect x="256" y="272" width="16" height="16"/><rect x="56" y="304" width="16" height="16"/></symbol><symbol id="food-and-restaurant" viewBox="0 0 511.999 511.999"><title>food-and-restaurant</title><g> <g> <path d="M308.609,166.492c-0.13-0.64-0.33-1.27-0.58-1.87c-0.25-0.61-0.55-1.19-0.91-1.73c-0.37-0.55-0.79-1.06-1.25-1.52 c-0.46-0.46-0.97-0.88-1.52-1.24c-0.54-0.36-1.12-0.67-1.72-0.92c-0.61-0.25-1.24-0.44-1.87-0.57c-1.29-0.26-2.62-0.26-3.91,0 c-0.64,0.13-1.27,0.32-1.87,0.57c-0.61,0.25-1.19,0.56-1.73,0.92c-0.55,0.36-1.06,0.78-1.52,1.24c-0.46,0.46-0.88,0.97-1.24,1.52 c-0.36,0.54-0.67,1.12-0.92,1.73c-0.25,0.6-0.44,1.23-0.57,1.87s-0.2,1.3-0.2,1.95c0,0.65,0.07,1.31,0.2,1.96 c0.13,0.63,0.32,1.26,0.57,1.87c0.25,0.6,0.56,1.18,0.92,1.72c0.36,0.55,0.78,1.06,1.24,1.52c0.46,0.46,0.97,0.88,1.52,1.25 c0.54,0.36,1.12,0.67,1.73,0.92c0.6,0.25,1.23,0.44,1.87,0.57s1.3,0.19,1.95,0.19c0.65,0,1.31-0.06,1.96-0.19 c0.63-0.13,1.26-0.32,1.87-0.57c0.6-0.25,1.181-0.56,1.72-0.92c0.55-0.37,1.06-0.79,1.52-1.25c0.46-0.46,0.88-0.97,1.25-1.52 c0.36-0.54,0.66-1.12,0.91-1.72c0.25-0.61,0.45-1.24,0.58-1.87c0.13-0.65,0.19-1.31,0.19-1.96 C308.799,167.792,308.739,167.132,308.609,166.492z"/> </g> </g><g> <g> <path d="M220.761,342.991c-0.13-0.63-0.32-1.26-0.57-1.87c-0.25-0.6-0.56-1.18-0.92-1.72c-0.36-0.55-0.78-1.06-1.24-1.52 c-0.46-0.46-0.98-0.88-1.52-1.25c-0.55-0.36-1.13-0.67-1.73-0.92s-1.23-0.44-1.87-0.57c-1.29-0.26-2.62-0.26-3.91,0 c-0.64,0.13-1.27,0.32-1.87,0.57c-0.6,0.25-1.18,0.56-1.73,0.92c-0.54,0.37-1.06,0.79-1.52,1.25c-0.46,0.46-0.87,0.97-1.24,1.52 c-0.36,0.54-0.67,1.12-0.92,1.72c-0.25,0.61-0.44,1.24-0.57,1.87c-0.13,0.65-0.19,1.31-0.19,1.96c0,2.63,1.06,5.21,2.92,7.07 c0.46,0.46,0.98,0.88,1.52,1.24c0.55,0.36,1.13,0.67,1.73,0.92c0.6,0.25,1.23,0.45,1.87,0.57c0.65,0.13,1.3,0.2,1.96,0.2 c0.649,0,1.31-0.07,1.95-0.2c0.64-0.12,1.27-0.32,1.87-0.57s1.18-0.56,1.73-0.92c0.54-0.36,1.06-0.78,1.52-1.24 c1.86-1.86,2.93-4.44,2.93-7.07C220.961,344.301,220.891,343.641,220.761,342.991z"/> </g> </g><g> <g> <path d="M390.169,161.812c1.711-6.26,2.558-13.006,2.525-20.169c-0.121-26.464-21.83-47.994-48.392-47.994h-0.85 c2.127-5.063,3.304-10.619,3.304-16.446c0-18.835-12.292-34.854-29.275-40.456c5.354-8.478,13.772-14.597,23.614-17.039 c5.36-1.33,8.628-6.753,7.297-12.114c-1.33-5.36-6.755-8.63-12.114-7.297c-16.866,4.185-30.968,15.513-38.69,31.079l-2.043,4.118 c-15.21,3.14-27.481,14.416-32.046,29.059c-9.163-10.175-16.554-21.775-21.556-33.895c-1.999-4.842-7.397-7.32-12.37-5.684 c-12.118,3.988-22.944,11.217-31.308,20.905c-11.603,13.439-17.583,30.366-17.139,47.769h-12.616 c-13.1,0-25.939,5.389-35.225,14.785c-9.164,9.273-14.128,21.414-13.978,34.185c0.076,6.497,1.442,12.816,3.968,18.643 c-18.7,6.704-32.126,24.62-32.126,45.574c0,15.798,7.609,29.851,19.354,38.689c0.009,0.288,0.029,0.576,0.063,0.864L140.57,503.16 c0.589,5.04,4.859,8.839,9.933,8.839h210.993c5.074,0,9.344-3.8,9.933-8.839l30.003-256.773c0.034-0.288,0.054-0.577,0.063-0.864 c11.745-8.838,19.354-22.891,19.354-38.688C420.848,186.431,408.117,168.907,390.169,161.812z M304.168,54.616 c12.455,0,22.587,10.132,22.587,22.587S316.622,99.79,304.168,99.79c-12.454,0-22.587-10.133-22.587-22.587 S291.714,54.616,304.168,54.616z M380.263,255.227L352.597,492H159.403l-27.666-236.773h24.617l19.793,207.722 c0.489,5.132,4.8,9.051,9.955,9.051h139.796c5.155,0,9.466-3.919,9.955-9.051l19.793-207.722L380.263,255.227L380.263,255.227z M250.956,354.95h75.098L316.806,452H195.194l-13.761-144.414h149.134l-2.607,27.364h-77.004c-5.523,0-10,4.477-10,10 C240.956,350.473,245.433,354.95,250.956,354.95z M179.527,287.586l-3.083-32.358h159.111l-3.082,32.358H179.527z M372.458,235.227H139.543c-15.655,0-28.392-12.737-28.392-28.393c0-15.144,11.952-27.583,26.892-28.353 c0.67,0.139,1.352,0.208,2.034,0.208c0.741,0,1.482-0.083,2.209-0.247h109.357c5.523,0,10-4.477,10-10c0-5.523-4.477-10-10-10 H144.53c-3.324-4.677-5.154-10.248-5.222-16.061c-0.087-7.385,2.827-14.45,8.205-19.891c5.554-5.621,13.208-8.844,20.999-8.844 h23.74c2.988,0,5.819-1.336,7.718-3.642c1.9-2.306,2.669-5.341,2.097-8.273c-2.999-15.371,1.134-30.965,11.339-42.785 c4.04-4.68,8.879-8.558,14.261-11.463c6.692,13.271,15.612,25.468,26.609,36.364l0.374,0.369c3.088,3.037,6.397,5.895,9.868,8.523 c6.221,15.82,21.65,27.048,39.652,27.048c8.054,0,15.592-2.247,22.022-6.147c0.365,0.004,0.73,0.006,1.093,0.006h17.019 c15.584,0,28.321,12.599,28.392,28.086c0.028,6.101-0.772,11.696-2.386,16.71H345.01c-5.523,0-10,4.477-10,10 c0,5.523,4.477,10,10,10h27.53c15.61,0.044,28.31,12.781,28.31,28.392C400.849,222.49,388.113,235.227,372.458,235.227z"/> </g> </g></symbol><symbol id="food" viewBox="0 0 511.998 511.998"><title>food</title><g> <g> <path d="M368.718,363.039c-0.12-0.64-0.32-1.27-0.57-1.87c-0.25-0.61-0.56-1.19-0.92-1.73c-0.36-0.55-0.78-1.06-1.24-1.52 c-2.32-2.32-5.77-3.39-9.02-2.73c-0.64,0.13-1.27,0.32-1.87,0.57c-0.61,0.25-1.19,0.56-1.73,0.92c-0.55,0.36-1.06,0.78-1.52,1.24 c-0.46,0.46-0.88,0.97-1.24,1.52c-0.36,0.54-0.67,1.12-0.92,1.73c-0.25,0.6-0.44,1.23-0.57,1.87s-0.2,1.3-0.2,1.95 c0,0.65,0.07,1.31,0.2,1.96c0.13,0.63,0.32,1.26,0.57,1.87c0.25,0.6,0.56,1.18,0.92,1.72c0.36,0.55,0.78,1.06,1.24,1.52 c0.46,0.46,0.97,0.88,1.52,1.25c0.54,0.36,1.12,0.67,1.73,0.92c0.6,0.25,1.23,0.44,1.87,0.57s1.3,0.19,1.95,0.19 c2.63,0,5.21-1.06,7.07-2.93c0.46-0.46,0.88-0.97,1.24-1.52c0.36-0.54,0.67-1.12,0.92-1.72c0.25-0.61,0.45-1.24,0.57-1.87 c0.13-0.65,0.2-1.31,0.2-1.96S368.848,363.679,368.718,363.039z"/> </g> </g><g> <g> <path d="M419.688,220.807c-1.897-2.128-4.613-3.345-7.464-3.345H400.55V91.639c0-5.523-4.477-10-10-10h-34.851V43.246 c0-5.523-4.477-10-10-10h-44.85c-5.523,0-10,4.477-10,10v65.464h-24.85V54.025c0-5.523-4.477-10-10-10h-34.851V10 c0-5.523-4.477-10-10-10h-44.851c-5.523,0-10,4.477-10,10v87.024h-34.851c-5.523,0-10,4.477-10,10v110.438H99.773 c-2.851,0-5.567,1.217-7.464,3.345c-1.897,2.128-2.796,4.965-2.47,7.797l31.583,274.537c0.581,5.047,4.854,8.857,9.935,8.857 h249.286c5.081,0,9.354-3.81,9.934-8.857l31.583-274.537C422.484,225.772,421.585,222.935,419.688,220.807z M355.7,101.639h24.851 v115.823H355.7V101.639z M310.849,53.246H335.7v166.642c-1.75,1.508-2.98,3.62-3.355,6.05l-7.295,47.273h-14.201V53.246z M265.999,128.71h24.851v144.5h-24.851V128.71z M221.148,64.025h24.851V273.21h-24.851V64.025z M176.297,20h24.851v253.21h-14.201 l-7.295-47.273c-0.375-2.429-1.605-4.542-3.355-6.05V20z M131.447,117.024h24.851v100.438h-24.851V117.024z M176.644,491.999 l4.2-36.518h150.309l4.2,36.518H176.644z M371.726,491.999h-16.241l-5.481-47.66c-0.581-5.047-4.854-8.857-9.935-8.857H171.928 c-5.081,0-9.354,3.81-9.935,8.857l-5.481,47.66h-16.241l-13.459-117.006h192.044c5.523,0,10-4.477,10-10s-4.477-10-10-10H124.512 l-9.487-82.477h16.109l7.294,47.275c0.752,4.877,4.949,8.475,9.883,8.475h215.375c4.934,0,9.131-3.599,9.883-8.475l7.294-47.275 h16.109L371.726,491.999z M399.273,252.516h-26.985c-4.934,0-9.13,3.599-9.883,8.475l-7.294,47.275H156.886l-7.294-47.275 c-0.753-4.877-4.949-8.475-9.883-8.475h-26.985l-1.731-15.053h50.197l7.296,47.272c0.425,2.754,1.949,5.101,4.084,6.622 c0.02,0.014,0.04,0.028,0.06,0.042c0.04,0.028,0.081,0.056,0.121,0.084c0.032,0.022,0.064,0.043,0.097,0.065 c0.027,0.018,0.055,0.036,0.082,0.054c0.043,0.028,0.086,0.055,0.129,0.082c0.016,0.01,0.032,0.02,0.048,0.03 c0.051,0.032,0.103,0.063,0.155,0.094c0.008,0.005,0.015,0.009,0.023,0.014c1.053,0.624,2.23,1.059,3.486,1.261 c0.005,0.001,0.011,0.002,0.017,0.003c0.061,0.01,0.122,0.019,0.184,0.027c0.019,0.003,0.037,0.005,0.056,0.008 c0.054,0.007,0.108,0.014,0.162,0.02c0.028,0.003,0.055,0.007,0.083,0.01c0.048,0.005,0.096,0.01,0.145,0.015 c0.034,0.003,0.067,0.006,0.101,0.009c0.044,0.004,0.088,0.007,0.132,0.011c0.039,0.003,0.079,0.005,0.119,0.007 c0.04,0.002,0.08,0.005,0.12,0.007c0.05,0.002,0.1,0.004,0.15,0.006c0.029,0.001,0.059,0.002,0.088,0.003 c0.082,0.002,0.164,0.003,0.246,0.003h155.254c0.082,0,0.164-0.001,0.246-0.003c0.029-0.001,0.059-0.002,0.088-0.003 c0.05-0.002,0.1-0.003,0.15-0.006c0.04-0.002,0.08-0.004,0.12-0.007c0.04-0.002,0.079-0.005,0.119-0.007 c0.044-0.003,0.088-0.007,0.132-0.011c0.034-0.003,0.067-0.006,0.101-0.009c0.048-0.005,0.097-0.01,0.145-0.015 c0.028-0.003,0.055-0.006,0.083-0.01c0.054-0.006,0.108-0.013,0.162-0.02c0.018-0.003,0.037-0.005,0.056-0.008 c0.061-0.009,0.123-0.018,0.184-0.027c0.006-0.001,0.011-0.002,0.017-0.003c1.256-0.202,2.433-0.638,3.486-1.261 c0.008-0.004,0.015-0.009,0.023-0.014c0.052-0.031,0.103-0.062,0.155-0.094c0.016-0.01,0.032-0.02,0.048-0.03 c0.043-0.027,0.086-0.055,0.129-0.082c0.028-0.018,0.055-0.036,0.082-0.054c0.032-0.022,0.065-0.043,0.097-0.065 c0.041-0.028,0.081-0.056,0.121-0.084c0.02-0.014,0.04-0.028,0.06-0.042c2.135-1.521,3.659-3.867,4.084-6.622l7.296-47.272h50.197 L399.273,252.516z"/> </g> </g></symbol><symbol id="burger" viewBox="0 0 511.999 511.999"><title>burger</title><g> <g> <path d="M413.949,155.583c-0.46-0.46-0.97-0.87-1.52-1.24c-0.54-0.36-1.12-0.67-1.72-0.92c-0.61-0.25-1.24-0.44-1.87-0.57 c-3.25-0.66-6.701,0.41-9.03,2.73c-1.86,1.87-2.93,4.44-2.93,7.07c0,0.66,0.07,1.31,0.2,1.96c0.13,0.64,0.32,1.27,0.57,1.87 c0.25,0.6,0.56,1.18,0.92,1.73c0.36,0.54,0.779,1.05,1.24,1.52c1.86,1.86,4.44,2.93,7.07,2.93c0.65,0,1.31-0.07,1.96-0.2 c0.63-0.13,1.26-0.32,1.87-0.57c0.6-0.25,1.18-0.56,1.72-0.92c0.55-0.37,1.06-0.78,1.52-1.24c0.47-0.47,0.88-0.98,1.25-1.52 c0.361-0.55,0.67-1.13,0.92-1.73c0.25-0.6,0.44-1.23,0.57-1.87c0.13-0.65,0.19-1.3,0.19-1.96 C416.879,160.025,415.819,157.444,413.949,155.583z"/> </g> </g><g> <g> <path d="M115.289,385.873c-0.12-0.64-0.32-1.27-0.57-1.87c-0.25-0.6-0.55-1.18-0.91-1.73c-0.37-0.54-0.79-1.06-1.25-1.52 c-0.46-0.46-0.97-0.88-1.52-1.24c-0.54-0.36-1.12-0.67-1.72-0.92c-0.61-0.25-1.24-0.44-1.88-0.57c-1.29-0.26-2.61-0.26-3.9,0 c-0.64,0.13-1.27,0.32-1.87,0.57c-0.61,0.25-1.19,0.56-1.73,0.92c-0.55,0.36-1.06,0.78-1.52,1.24c-0.46,0.46-0.88,0.98-1.24,1.52 c-0.36,0.55-0.67,1.13-0.92,1.73c-0.25,0.6-0.45,1.23-0.57,1.87c-0.13,0.651-0.2,1.3-0.2,1.96c0,0.65,0.07,1.3,0.2,1.95 c0.12,0.64,0.32,1.27,0.57,1.87c0.25,0.6,0.56,1.18,0.92,1.73c0.36,0.54,0.78,1.06,1.24,1.52c0.46,0.46,0.97,0.88,1.52,1.24 c0.54,0.36,1.12,0.67,1.73,0.92c0.6,0.25,1.23,0.44,1.87,0.57s1.3,0.2,1.95,0.2c0.65,0,1.31-0.07,1.95-0.2 c0.64-0.13,1.27-0.32,1.88-0.57c0.6-0.25,1.18-0.56,1.72-0.92c0.55-0.36,1.059-0.78,1.52-1.24c0.46-0.46,0.88-0.98,1.25-1.52 c0.36-0.55,0.66-1.13,0.91-1.73c0.25-0.6,0.45-1.23,0.57-1.87c0.13-0.65,0.2-1.3,0.2-1.95 C115.489,387.173,115.419,386.523,115.289,385.873z"/> </g> </g><g> <g> <path d="M511.999,222.726c0-14.215-9.228-26.315-22.007-30.624c-1.628-74.155-62.456-133.978-136.994-133.978H159.002 c-74.538,0-135.366,59.823-136.994,133.978C9.228,196.411,0,208.51,0,222.726c0,5.429,1.386,10.626,3.847,15.203 c-0.528,2.767-0.795,5.585-0.795,8.427v0.708c0,14.06,6.519,26.625,16.693,34.833c-10.178,8.275-16.693,20.891-16.693,35.001 c0,15.114,7.475,28.515,18.921,36.702v26.668c0,40.588,33.021,73.608,73.608,73.608h320.836c40.588,0,73.608-33.021,73.608-73.608 v-26.668c11.446-8.186,18.921-21.587,18.921-36.702c0-13.852-6.354-26.385-16.361-34.702c9.983-8.212,16.361-20.656,16.361-34.562 v-0.708c0-2.985-0.294-5.944-0.877-8.845C510.582,233.466,511.999,228.214,511.999,222.726z M44.033,173.229h322.441 c5.523,0,10-4.477,10-10c0-5.523-4.477-10-10-10H49.737c16.896-43.883,59.503-75.106,109.265-75.106h193.996 c62.942,0,114.438,49.953,116.934,112.295H42.068C42.302,184.57,42.968,178.83,44.033,173.229z M23.052,316.896 c0-13.837,11.257-25.094,25.094-25.094h117.298l55.346,50.188H48.146C34.309,341.99,23.052,330.734,23.052,316.896z M24.028,253.951c0.422,0.111,0.847,0.215,1.275,0.309c7.421,1.634,14.68,8.002,22.365,14.744 c1.045,0.917,2.113,1.854,3.206,2.799h-3.081C36.54,271.802,27.019,264.252,24.028,253.951z M332.755,343.703l57.233-51.899 l49.904,0.57l-81.871,74.24L332.755,343.703z M340.616,377.829H295.12l17.467-15.839h10.563L340.616,377.829z M360.215,291.802 l-82.499,74.811l-82.499-74.811H360.215z M300.686,271.802c0.849-0.842,1.677-1.675,2.49-2.493 c9.531-9.587,17.059-17.16,32.89-17.16c15.832,0,23.359,7.573,32.89,17.162c0.812,0.817,1.64,1.65,2.489,2.491H300.686z M140.556,271.802c0.848-0.841,1.677-1.675,2.489-2.492c9.531-9.588,17.059-17.161,32.89-17.161 c15.83,0,23.358,7.573,32.888,17.16c0.813,0.818,1.641,1.651,2.49,2.493H140.556z M416.418,433.875H95.582 c-29.56,0-53.608-24.049-53.608-53.608v-18.275h200.872l17.467,15.839H145.897c-5.523,0-10,4.477-10,10s4.477,10,10,10H467.07 C459.782,418.789,439.828,433.875,416.418,433.875z M470.026,377.829h-94.6l17.467-15.839h77.133V377.829z M463.852,341.992 h-48.906l54.624-49.533c11.135,2.604,19.376,12.665,19.376,24.439C488.946,330.734,477.689,341.992,463.852,341.992z M461.124,271.802c0.087-0.076,0.175-0.151,0.262-0.227c0.034-0.029,0.067-0.058,0.101-0.087c0.114-0.099,0.228-0.199,0.342-0.298 c0.848-0.738,1.682-1.469,2.501-2.187c4.105-3.601,8.089-7.095,12.04-9.819c3.446-2.375,6.868-4.164,10.326-4.925 c0.12-0.027,0.24-0.054,0.359-0.081c0.013-0.003,0.027-0.006,0.04-0.01c0.106-0.025,0.212-0.05,0.317-0.076 c0.022-0.005,0.044-0.011,0.065-0.016c0.094-0.023,0.187-0.046,0.28-0.07c0.047-0.012,0.093-0.024,0.14-0.037 c0.065-0.017,0.131-0.034,0.196-0.052c0.017-0.003,0.032-0.007,0.048-0.012c-2.433,9.276-10.129,16.443-19.691,18.102 c-0.655-0.135-1.33-0.205-2.016-0.205H461.124z M482.395,234.729c-1.555,0.343-3.066,0.773-4.536,1.281 c-10.109,3.489-18.327,10.602-26.283,17.58c-0.145,0.127-0.289,0.254-0.434,0.381c-9.178,8.052-17.923,15.723-29.033,17.834 h-13.146c-11.249-1.93-17.833-8.552-25.823-16.591c-10.213-10.275-22.923-23.062-47.074-23.062 c-24.15,0-36.86,12.786-47.074,23.06c-7.992,8.04-14.576,14.663-25.829,16.593h-14.327c-11.253-1.93-17.837-8.553-25.829-16.593 c-10.213-10.274-22.923-23.06-47.072-23.06c-24.151,0-36.861,12.787-47.074,23.062c-7.991,8.039-14.574,14.661-25.824,16.591 h-7.065c-14.134,0-24.325-8.939-35.113-18.404c-9.248-8.112-18.81-16.501-31.252-19.241c-2.779-0.612-5.274-2.193-7.025-4.453 c-0.352-0.454-0.738-0.872-1.153-1.252c-0.914-1.727-1.428-3.684-1.428-5.727c-0.001-6.788,5.52-12.309,12.307-12.309h447.384 c6.787,0,12.308,5.521,12.308,12.308C492,228.456,487.961,233.503,482.395,234.729z"/> </g> </g></symbol></svg>